<svg width="45" height="45" viewBox="0 0 45 45" fill="none" xmlns="http://www.w3.org/2000/svg">
<g clip-path="url(#clip0_140_114)">
<path fill-rule="evenodd" clip-rule="evenodd" d="M25.0537 6.62973C25.9612 6.80411 27.2868 7.25786 27.9262 8.53661C29.3268 11.3379 28.1699 14.0004 26.9287 15.656C26.1187 16.736 25.0762 17.7522 23.8631 18.3747C23.6099 18.506 23.0943 18.7497 22.4999 18.7497C21.3918 18.7497 20.3062 18.2454 19.4156 17.6154C19.2468 18.1891 19.0837 18.8191 18.9431 19.4866C18.6649 20.7673 18.5142 22.0724 18.4931 23.3829C20.4674 22.7454 22.4868 22.8129 24.2268 23.7954C25.5336 22.767 27.0378 22.0183 28.6462 21.596C31.0837 20.9566 34.0087 21.0447 36.6656 22.8147C38.5687 24.0841 40.0106 26.4747 40.3012 29.0904C40.6049 31.8166 39.6581 34.7979 36.7949 37.0891C34.7737 38.7054 31.6931 39.3297 28.8581 39.5566C25.9237 39.7929 22.8243 39.6316 20.4187 39.3635C15.9599 38.8685 12.5362 37.6235 10.1437 36.3391C8.57432 35.4954 6.42744 34.3291 5.74682 32.5422C5.28744 31.331 5.40744 29.861 5.51994 28.601C5.66994 26.9491 6.03744 24.8866 6.72557 22.6516C8.09807 18.191 10.7849 12.9129 15.6806 8.86661C17.1862 7.62161 19.7062 6.84911 21.8156 6.59036C22.9031 6.45723 24.0468 6.43848 25.0537 6.62973Z" fill="white"/>
</g>
<defs>
<clipPath id="clip0_140_114">
<rect width="45" height="45" fill="white"/>
</clipPath>
</defs>
</svg>
